<svg xmlns="http://www.w3.org/2000/svg" xmlns:xlink="http://www.w3.org/1999/xlink" id="Layer_1" x="0" y="0" version="1.1" viewBox="0 0 376.3 482" style="enable-background:new 0 0 376.3 482" xml:space="preserve"><style type="text/css">.st0{fill:url(#SVGID_1_)}.st1{fill:#ffcd00}</style><linearGradient id="SVGID_1_" x1="43.743" x2="238.743" y1="317.339" y2="218.339" gradientTransform="matrix(1 0 0 -1 -19.6471 464.9445)" gradientUnits="userSpaceOnUse"><stop offset=".01" style="stop-color:#ffcd00"/><stop offset="1" style="stop-color:#c2d100"/></linearGradient><path d="M0.3,37.3C-0.2,45,0.1,98.5,0.1,140.7s46.6,75.5,55.2,81.7c21.2,16.2,76.3,46,115.4,79.9	c17.5,15.2,17.4,26.9,17.4,26.9v-102c0,0,0.2-29.2-17.4-47.6C157.2,165.5,77,124.5,39.9,92.7C12.4,68.4,0.5,38,0.3,37.3z" class="st0"/><path d="M0.1,138c0,0,6.7-23.1,39.6-45.7C52.5,83.6,71,72.2,98.2,56.4c33.9-19.7,44.1-27,58.2-40.9	C94.5,18.4,35.9,29.1,0.3,37.3C-0.2,40.5,0.1,138,0.1,138z" class="st1"/><linearGradient id="SVGID_00000102528484284297688940000004015903467208535442_" x1="45.966" x2="250.516" y1="288.248" y2="383.027" gradientTransform="matrix(1 0 0 -1 -19.6471 464.9445)" gradientUnits="userSpaceOnUse"><stop offset="0" style="stop-color:#ffcf00"/><stop offset="1" style="stop-color:#c2d100"/></linearGradient><path style="fill:url(#SVGID_00000102528484284297688940000004015903467208535442_)" d="M0.1,290.6c0,0.1,0-70,0-112.2	c0-6.6,1-13.1,3.1-19.3C16.4,126.6,49,105.9,53,103c29.5-21.4,77.3-48.1,100.8-65c27.7-22.1,34.4-38,34.4-38v102	c0,0,0.2,26.1-17.4,44.5c-13.5,14.1-87,45.4-131.8,91C20.5,256.2,0.1,290.5,0.1,290.6z"/><linearGradient id="SVGID_00000174585247809019296340000005009103449442970000_" x1="62.314" x2="198.314" y1="170.506" y2="69.506" gradientTransform="matrix(1 0 0 -1 -19.6471 464.9445)" gradientUnits="userSpaceOnUse"><stop offset="0" style="stop-color:#ffcd00"/><stop offset="1" style="stop-color:#c2d100"/></linearGradient><path style="fill:url(#SVGID_00000174585247809019296340000005009103449442970000_)" d="M0.1,183.2c0,0,0,61.3,0,104.7	s24.2,54.8,32.9,61.2c8.6,5.8,72.1,48.5,104.5,73.7c7.4,5.8,26.2,22.5,30,26.5c16.3,16.7,20.7,32.8,20.7,32.8V377	c0,0-2.1-25-17.4-45.8c-15.9-21.5-96.8-71.7-130.2-95.3C7.8,212.6,0.1,183.2,0.1,183.2z"/><linearGradient id="SVGID_00000025435335967562418290000013630044385680055196_" x1="133.131" x2="406.13" y1="203.307" y2="330.307" gradientTransform="matrix(1 0 0 -1 -19.6471 464.9445)" gradientUnits="userSpaceOnUse"><stop offset="0" style="stop-color:#c2d100"/><stop offset=".51" style="stop-color:#00a5b5"/><stop offset="1" style="stop-color:#006d96"/></linearGradient><path style="fill:url(#SVGID_00000025435335967562418290000013630044385680055196_)" d="M376,37.3c0.5,7.7,0.2,61.2,0.2,103.3	s-46.6,75.5-55.3,81.7c-21.2,16.2-76.3,46-115.4,79.9c-17.5,15.2-17.4,26.9-17.4,26.9v-102c0,0-0.2-29.2,17.4-47.6	c13.5-14.1,93.7-55.1,130.8-86.9C363.9,68.4,375.8,38,376,37.3z"/><linearGradient id="SVGID_00000003799234245983725350000010460314214631179146_" x1="239.531" x2="395.93" y1="388.161" y2="388.161" gradientTransform="matrix(1 0 0 -1 -19.6471 464.9445)" gradientUnits="userSpaceOnUse"><stop offset=".4" style="stop-color:#00a5b5"/><stop offset="1" style="stop-color:#006d96"/></linearGradient><path style="fill:url(#SVGID_00000003799234245983725350000010460314214631179146_)" d="M376.2,138c0,0-6.7-23.1-39.6-45.7	c-12.8-8.8-31.3-20.2-58.5-35.9c-33.9-19.7-44.1-27-58.2-40.9c61.9,2.8,120.5,13.6,156.1,21.8C376.5,40.5,376.2,138,376.2,138z"/><linearGradient id="SVGID_00000056425394977941637700000001053548798152813471_" x1="162.308" x2="403.308" y1="421.339" y2="245.689" gradientTransform="matrix(1 0 0 -1 -19.6471 464.9445)" gradientUnits="userSpaceOnUse"><stop offset=".01" style="stop-color:#c2d100"/><stop offset=".51" style="stop-color:#00a5b5"/><stop offset="1" style="stop-color:#006d96"/></linearGradient><path style="fill:url(#SVGID_00000056425394977941637700000001053548798152813471_)" d="M376.2,290.6c0,0.1,0-70,0-112.2	c0-6.6-1-13.1-3.1-19.3c-13.2-32.6-45.7-53.3-49.7-56.2C293.8,81.6,246,54.8,222.6,38c-27.7-22.1-34.4-38-34.4-38v102	c0,0-0.2,26.1,17.4,44.5c13.5,14.1,87,45.4,131.8,91C355.8,256.2,376.2,290.5,376.2,290.6z"/><linearGradient id="SVGID_00000117665264675687350990000009439529133488569741_" x1="139.732" x2="374.992" y1="71.933" y2="159.573" gradientTransform="matrix(1 0 0 -1 -19.6471 464.9445)" gradientUnits="userSpaceOnUse"><stop offset=".01" style="stop-color:#c2d100"/><stop offset=".51" style="stop-color:#00a5b5"/><stop offset="1" style="stop-color:#006d96"/></linearGradient><path style="fill:url(#SVGID_00000117665264675687350990000009439529133488569741_)" d="M376.2,183.2c0,0,0,61.3,0,104.7	s-24.2,54.8-32.9,61.2c-8.6,5.8-72.1,48.5-104.5,73.7c-7.4,5.8-26.2,22.5-30,26.5C192.6,466,188.2,482,188.2,482V377	c0,0,2.1-25,17.4-45.8c15.9-21.5,96.8-71.7,130.2-95.3C368.5,212.6,376.2,183.2,376.2,183.2z"/></svg>